# xmcd
#
# Track frame offsets: 
#        150
#        19201
#        33601
#        50777
#        63573
#        83600
#        99766
#        124881
#        137227
#        161408
#        183966
#        202242
#        219718
#        240239
#
# Disc length: 3428 seconds
#
# Revision: 0
# Processed by: cddbd v1.5.2PL0 Copyright (c) Steve Scherf et al.
# Submitted via: ExactAudioCopy v1.1
#
DISCID=c60d620e
DTITLE=The Agonist - Five
DYEAR=2016
DGENRE=Melodic Death Metal
TTITLE0=The Moment
TTITLE1=The Chain
TTITLE2=The Anchor and the Sail
TTITLE3=The Game
TTITLE4=The Ocean
TTITLE5=The Hunt
TTITLE6=The Raven Eyes
TTITLE7=The Wake
TTITLE8=The Resurrection
TTITLE9=The Villain
TTITLE10=The Pursuit of Emptiness
TTITLE11=The Man Who Fell to Earth
TTITLE12=The Trial
TTITLE13=The Bonus: Take Me to Church (Hozier cover)
EXTD=
EXTT0=
EXTT1=
EXTT2=
EXTT3=
EXTT4=
EXTT5=
EXTT6=
EXTT7=
EXTT8=
EXTT9=
EXTT10=
EXTT11=
EXTT12=
EXTT13=
PLAYORDER=
